{
    "asset" : {
        "generator" : "Khronos glTF Blender I/O v1.6.16",
        "version" : "2.0"
    },
    "scene" : 0,
    "scenes" : [
        {
            "name" : "Scene",
            "nodes" : [
                0,
                1,
                2,
                3,
                4
            ]
        }
    ],
    "nodes" : [
        {
            "mesh" : 0,
            "name" : "Plane001.003",
            "rotation" : [
                0.7071068286895752,
                0,
                0,
                0.7071067094802856
            ]
        },
        {
            "mesh" : 1,
            "name" : "Box001.003",
            "rotation" : [
                0.7071068286895752,
                0,
                0,
                0.7071067094802856
            ]
        },
        {
            "mesh" : 2,
            "name" : "Plane002.003",
            "rotation" : [
                0.7071068286895752,
                0,
                0,
                0.7071067094802856
            ]
        },
        {
            "mesh" : 3,
            "name" : "Box004.003",
            "rotation" : [
                0.7071068286895752,
                0,
                0,
                0.7071067094802856
            ]
        },
        {
            "mesh" : 4,
            "name" : "Box005.003",
            "rotation" : [
                0.7071068286895752,
                0,
                0,
                0.7071067094802856
            ]
        }
    ],
    "meshes" : [
        {
            "name" : "Plane001.003",
            "primitives" : [
                {
                    "attributes" : {
                        "POSITION" : 0,
                        "NORMAL" : 1,
                        "TEXCOORD_0" : 2
                    },
                    "indices" : 3
                }
            ]
        },
        {
            "name" : "Box001.003",
            "primitives" : [
                {
                    "attributes" : {
                        "POSITION" : 4,
                        "NORMAL" : 5,
                        "TEXCOORD_0" : 6
                    },
                    "indices" : 7
                }
            ]
        },
        {
            "name" : "Plane002.003",
            "primitives" : [
                {
                    "attributes" : {
                        "POSITION" : 8,
                        "NORMAL" : 9,
                        "TEXCOORD_0" : 10
                    },
                    "indices" : 11
                }
            ]
        },
        {
            "name" : "Box004.003",
            "primitives" : [
                {
                    "attributes" : {
                        "POSITION" : 12,
                        "NORMAL" : 13,
                        "TEXCOORD_0" : 14
                    },
                    "indices" : 15
                }
            ]
        },
        {
            "name" : "Box005.003",
            "primitives" : [
                {
                    "attributes" : {
                        "POSITION" : 16,
                        "NORMAL" : 17,
                        "TEXCOORD_0" : 18
                    },
                    "indices" : 19
                }
            ]
        }
    ],
    "accessors" : [
        {
            "bufferView" : 0,
            "componentType" : 5126,
            "count" : 522,
            "max" : [
                50,
                4.282800197601318,
                50
            ],
            "min" : [
                -50,
                -2.1017000675201416,
                -50
            ],
            "type" : "VEC3"
        },
        {
            "bufferView" : 1,
            "componentType" : 5126,
            "count" : 522,
            "type" : "VEC3"
        },
        {
            "bufferView" : 2,
            "componentType" : 5126,
            "count" : 522,
            "type" : "VEC2"
        },
        {
            "bufferView" : 3,
            "componentType" : 5123,
            "count" : 2520,
            "type" : "SCALAR"
        },
        {
            "bufferView" : 4,
            "componentType" : 5126,
            "count" : 562,
            "max" : [
                42.67829895019531,
                7.765399932861328,
                24.521299362182617
            ],
            "min" : [
                21.645000457763672,
                0,
                3.48799991607666
            ],
            "type" : "VEC3"
        },
        {
            "bufferView" : 5,
            "componentType" : 5126,
            "count" : 562,
            "type" : "VEC3"
        },
        {
            "bufferView" : 6,
            "componentType" : 5126,
            "count" : 562,
            "type" : "VEC2"
        },
        {
            "bufferView" : 7,
            "componentType" : 5123,
            "count" : 900,
            "type" : "SCALAR"
        },
        {
            "bufferView" : 8,
            "componentType" : 5126,
            "count" : 130,
            "max" : [
                41.39699935913086,
                59.636199951171875,
                37.92689895629883
            ],
            "min" : [
                -41.36830139160156,
                -1.3202999830245972,
                -45.32490158081055
            ],
            "type" : "VEC3"
        },
        {
            "bufferView" : 9,
            "componentType" : 5126,
            "count" : 130,
            "type" : "VEC3"
        },
        {
            "bufferView" : 10,
            "componentType" : 5126,
            "count" : 130,
            "type" : "VEC2"
        },
        {
            "bufferView" : 11,
            "componentType" : 5123,
            "count" : 192,
            "type" : "SCALAR"
        },
        {
            "bufferView" : 12,
            "componentType" : 5126,
            "count" : 663,
            "max" : [
                -21.923999786376953,
                7.765399932861328,
                -21.743799209594727
            ],
            "min" : [
                -49.573699951171875,
                -1.6660000085830688,
                -49.39350128173828
            ],
            "type" : "VEC3"
        },
        {
            "bufferView" : 13,
            "componentType" : 5126,
            "count" : 663,
            "type" : "VEC3"
        },
        {
            "bufferView" : 14,
            "componentType" : 5126,
            "count" : 663,
            "type" : "VEC2"
        },
        {
            "bufferView" : 15,
            "componentType" : 5123,
            "count" : 1008,
            "type" : "SCALAR"
        },
        {
            "bufferView" : 16,
            "componentType" : 5126,
            "count" : 613,
            "max" : [
                -14.340299606323242,
                7.765399932861328,
                23.311599731445312
            ],
            "min" : [
                -35.750301361083984,
                0,
                1.9017000198364258
            ],
            "type" : "VEC3"
        },
        {
            "bufferView" : 17,
            "componentType" : 5126,
            "count" : 613,
            "type" : "VEC3"
        },
        {
            "bufferView" : 18,
            "componentType" : 5126,
            "count" : 613,
            "type" : "VEC2"
        },
        {
            "bufferView" : 19,
            "componentType" : 5123,
            "count" : 933,
            "type" : "SCALAR"
        }
    ],
    "bufferViews" : [
        {
            "buffer" : 0,
            "byteLength" : 6264,
            "byteOffset" : 0
        },
        {
            "buffer" : 0,
            "byteLength" : 6264,
            "byteOffset" : 6264
        },
        {
            "buffer" : 0,
            "byteLength" : 4176,
            "byteOffset" : 12528
        },
        {
            "buffer" : 0,
            "byteLength" : 5040,
            "byteOffset" : 16704
        },
        {
            "buffer" : 0,
            "byteLength" : 6744,
            "byteOffset" : 21744
        },
        {
            "buffer" : 0,
            "byteLength" : 6744,
            "byteOffset" : 28488
        },
        {
            "buffer" : 0,
            "byteLength" : 4496,
            "byteOffset" : 35232
        },
        {
            "buffer" : 0,
            "byteLength" : 1800,
            "byteOffset" : 39728
        },
        {
            "buffer" : 0,
            "byteLength" : 1560,
            "byteOffset" : 41528
        },
        {
            "buffer" : 0,
            "byteLength" : 1560,
            "byteOffset" : 43088
        },
        {
            "buffer" : 0,
            "byteLength" : 1040,
            "byteOffset" : 44648
        },
        {
            "buffer" : 0,
            "byteLength" : 384,
            "byteOffset" : 45688
        },
        {
            "buffer" : 0,
            "byteLength" : 7956,
            "byteOffset" : 46072
        },
        {
            "buffer" : 0,
            "byteLength" : 7956,
            "byteOffset" : 54028
        },
        {
            "buffer" : 0,
            "byteLength" : 5304,
            "byteOffset" : 61984
        },
        {
            "buffer" : 0,
            "byteLength" : 2016,
            "byteOffset" : 67288
        },
        {
            "buffer" : 0,
            "byteLength" : 7356,
            "byteOffset" : 69304
        },
        {
            "buffer" : 0,
            "byteLength" : 7356,
            "byteOffset" : 76660
        },
        {
            "buffer" : 0,
            "byteLength" : 4904,
            "byteOffset" : 84016
        },
        {
            "buffer" : 0,
            "byteLength" : 1866,
            "byteOffset" : 88920
        }
    ],
    "buffers" : [
        {
            "byteLength" : 90788,
            "uri" : "data:application/octet-stream;base64,"
        }
    ]
}